<svg xmlns="http://www.w3.org/2000/svg" viewBox="0 0 1040 240" role="img" aria-labelledby="title desc">
  <title id="title">Calcumaker 16 logo for light backgrounds</title>
  <desc id="desc">Calcumaker 16 horizontal lockup with a precision faceplate mark and the tagline Every base. Every digit.</desc>
  <defs>
    <linearGradient id="case" x1="72" y1="42" x2="442" y2="470" gradientUnits="userSpaceOnUse">
      <stop offset="0" stop-color="#2b3036"/>
      <stop offset="1" stop-color="#15191e"/>
    </linearGradient>
    <linearGradient id="gold" x1="92" y1="118" x2="442" y2="390" gradientUnits="userSpaceOnUse">
      <stop offset="0" stop-color="#ffd36b"/>
      <stop offset=".52" stop-color="#f0c25a"/>
      <stop offset="1" stop-color="#b87918"/>
    </linearGradient>
    <linearGradient id="glass" x1="168" y1="192" x2="374" y2="328" gradientUnits="userSpaceOnUse">
      <stop offset="0" stop-color="#210909"/>
      <stop offset="1" stop-color="#07090c"/>
    </linearGradient>
    <filter id="led-glow" x="-50%" y="-50%" width="200%" height="200%" color-interpolation-filters="sRGB">
      <feGaussianBlur stdDeviation="4" result="blur"/>
      <feMerge>
        <feMergeNode in="blur"/>
        <feMergeNode in="SourceGraphic"/>
      </feMerge>
    </filter>
  </defs>

  <g transform="translate(24 22) scale(.38)">
    <rect x="22" y="22" width="468" height="468" rx="96" fill="url(#case)"/>
    <rect x="22" y="22" width="468" height="468" rx="96" fill="none" stroke="#080a0d" stroke-width="14"/>
    <rect x="54" y="54" width="404" height="404" rx="72" fill="none" stroke="#343a42" stroke-width="2" opacity=".72"/>
    <path d="M146 102h235l62 66-34 32-46-48H190l-50 58H82Z" fill="#11161b"/>
    <path d="M82 302h58l50 58h173l46-48 34 32-62 66H146Z" fill="#11161b"/>
    <path d="M120 150h52l-46 54H74Z" fill="#3a4149"/>
    <path d="M74 306h52l46 54h-52Z" fill="#3a4149"/>
    <path d="M181 130h190l72 76h-74l-34-34H214l-38 50h-68Z" fill="url(#gold)"/>
    <path d="M108 290h68l38 50h121l34-34h74l-72 76H181Z" fill="url(#gold)"/>
    <path d="M373 206h70v100h-70l23-28v-44Z" fill="#c88f25"/>
    <path d="M190 190h150l38 38v56l-38 38H190l-38-38v-56Z" fill="url(#glass)" stroke="#3c444d" stroke-width="8" stroke-linejoin="round"/>
    <g filter="url(#led-glow)" fill="#ff3b30">
      <rect x="227" y="220" width="17" height="71" rx="8"/>
      <rect x="278" y="214" width="72" height="18" rx="8"/>
      <rect x="260" y="229" width="18" height="52" rx="8"/>
      <rect x="278" y="270" width="70" height="18" rx="8"/>
      <rect x="260" y="287" width="18" height="52" rx="8"/>
      <rect x="334" y="287" width="18" height="52" rx="8"/>
      <rect x="278" y="328" width="72" height="18" rx="8"/>
    </g>
    <g fill="none" stroke="#f0c25a" stroke-width="6" stroke-linecap="round" stroke-linejoin="round">
      <path d="M78 252h38l26 26h52"/>
      <path d="M78 282h70l38 38h34"/>
    </g>
    <g>
      <rect x="380" y="213" width="58" height="15" rx="8" fill="#ff3b30" filter="url(#led-glow)"/>
      <rect x="380" y="239" width="58" height="15" rx="8" fill="#ff3b30" filter="url(#led-glow)"/>
      <rect x="380" y="265" width="58" height="15" rx="8" fill="#f0c25a"/>
      <rect x="380" y="291" width="58" height="15" rx="8" fill="#6ea8ff"/>
    </g>
  </g>

  <text x="260" y="94" font-family="ui-sans-serif, system-ui, -apple-system, Segoe UI, Roboto, sans-serif"
        font-size="58" font-weight="850" letter-spacing="9" fill="#23262b">CALCUMAKER</text>
  <text x="892" y="94" font-family="ui-sans-serif, system-ui, -apple-system, Segoe UI, Roboto, sans-serif"
        font-size="58" font-weight="850" letter-spacing="1" fill="#d39b24">16</text>
  <text x="264" y="145" font-family="ui-monospace, SFMono-Regular, Menlo, Consolas, monospace"
        font-size="22" font-weight="750" letter-spacing="4" fill="#46617a">EVERY BASE. EVERY DIGIT.</text>
  <rect x="766" y="128" width="18" height="24" rx="4" fill="#ff3b30"/>
</svg>
