<svg xmlns="http://www.w3.org/2000/svg" viewBox="0 0 512 512" role="img" aria-labelledby="title desc">
  <title id="title">Calcumaker 16 one-color mark</title>
  <desc id="desc">A one-color Calcumaker 16 faceplate mark for PCB silk, engraving, and single-color print.</desc>
  <g fill="#111820">
    <path d="M181 130h190l72 76h-74l-34-34H214l-38 50h-68Z"/>
    <path d="M108 290h68l38 50h121l34-34h74l-72 76H181Z"/>
    <path d="M373 206h70v100h-70l23-28v-44Z"/>
    <path d="M190 190h150l38 38v56l-38 38H190l-38-38v-56Z" fill="none" stroke="#111820" stroke-width="22" stroke-linejoin="round"/>
    <rect x="227" y="220" width="17" height="71" rx="8"/>
    <rect x="278" y="214" width="72" height="18" rx="8"/>
    <rect x="260" y="229" width="18" height="52" rx="8"/>
    <rect x="278" y="270" width="70" height="18" rx="8"/>
    <rect x="260" y="287" width="18" height="52" rx="8"/>
    <rect x="334" y="287" width="18" height="52" rx="8"/>
    <rect x="278" y="328" width="72" height="18" rx="8"/>
    <rect x="380" y="213" width="58" height="15" rx="8"/>
    <rect x="380" y="239" width="58" height="15" rx="8"/>
    <rect x="380" y="265" width="58" height="15" rx="8"/>
    <rect x="380" y="291" width="58" height="15" rx="8"/>
    <path d="M78 252h38l26 26h52" fill="none" stroke="#111820" stroke-width="10" stroke-linecap="round" stroke-linejoin="round"/>
    <path d="M78 282h70l38 38h34" fill="none" stroke="#111820" stroke-width="10" stroke-linecap="round" stroke-linejoin="round"/>
  </g>
</svg>
