<svg xmlns="http://www.w3.org/2000/svg" viewBox="0 0 512 512" role="img" aria-labelledby="t">
  <title id="t">Calcumaker</title>
  <rect x="22" y="22" width="468" height="468" rx="96" fill="#23262b"/>
  <rect x="22" y="22" width="468" height="468" rx="96" fill="none" stroke="#080a0d" stroke-width="14"/>
  <path d="M181 130h190l72 76h-74l-34-34H214l-38 50h-68Z" fill="#f0c25a"/>
  <path d="M108 290h68l38 50h121l34-34h74l-72 76H181Z" fill="#f0c25a"/>
  <path d="M373 206h70v100h-70l23-28v-44Z" fill="#c88f25"/>
  <path d="M190 190h150l38 38v56l-38 38H190l-38-38v-56Z" fill="#080a0d" stroke="#3c444d" stroke-width="8" stroke-linejoin="round"/>
  <g fill="#ff3b30">
    <rect x="227" y="220" width="17" height="71" rx="8"/>
    <rect x="278" y="214" width="72" height="18" rx="8"/>
    <rect x="260" y="229" width="18" height="52" rx="8"/>
    <rect x="278" y="270" width="70" height="18" rx="8"/>
    <rect x="260" y="287" width="18" height="52" rx="8"/>
    <rect x="334" y="287" width="18" height="52" rx="8"/>
    <rect x="278" y="328" width="72" height="18" rx="8"/>
  </g>
</svg>
